<?xml version="1.0" encoding="UTF-8" standalone="no"?>
<!-- Generator: Adobe Illustrator 19.0.0, SVG Export Plug-In . SVG Version: 6.00 Build 0)  -->

<svg
   version="1.1"
   id="Calque_1"
   x="0px"
   y="0px"
   viewBox="0 0 1230 300"
   style="enable-background:new 0 0 1230 300;"
   xml:space="preserve"
   sodipodi:docname="arc.svg"
   inkscape:version="1.1.2 (0a00cf5339, 2022-02-04, custom)"
   xmlns:inkscape="http://www.inkscape.org/namespaces/inkscape"
   xmlns:sodipodi="http://sodipodi.sourceforge.net/DTD/sodipodi-0.dtd"
   xmlns="http://www.w3.org/2000/svg"
   xmlns:svg="http://www.w3.org/2000/svg"><defs
   id="defs1098"><linearGradient
     id="linearGradient5903-6"
     inkscape:swatch="gradient"><stop
       style="stop-color:#ff0000;stop-opacity:1;"
       offset="0"
       id="stop5921" /><stop
       style="stop-color:#000000;stop-opacity:0;"
       offset="1"
       id="stop5923" /></linearGradient><linearGradient
     id="linearGradient5903"
     inkscape:swatch="gradient"><stop
       style="stop-color:#ff0000;stop-opacity:1;"
       offset="0"
       id="stop5916" /><stop
       style="stop-color:#000000;stop-opacity:0;"
       offset="1"
       id="stop5918" /></linearGradient></defs><sodipodi:namedview
   id="namedview1096"
   pagecolor="#505050"
   bordercolor="#eeeeee"
   borderopacity="1"
   inkscape:pageshadow="0"
   inkscape:pageopacity="0"
   inkscape:pagecheckerboard="0"
   showgrid="false"
   inkscape:lockguides="true"
   inkscape:zoom="0.67778772"
   inkscape:cx="614.49918"
   inkscape:cy="150.4896"
   inkscape:window-width="1904"
   inkscape:window-height="984"
   inkscape:window-x="1928"
   inkscape:window-y="88"
   inkscape:window-maximized="1"
   inkscape:current-layer="Calque_1" />
<style
   type="text/css"
   id="style1066">
	.st0{fill:#344358;}
	.st1{fill:#F39208;}
	.st2{fill:#FCC010;}
	.st3{fill:#F49619;}
	.st4{fill:#EC630E;}
	.st5{fill:#CBEAFC;}
	.st6{fill:#77C2E0;}
	.st7{fill:#F9DE6A;}
	.st8{fill:#C6781A;}
	.st9{fill:#010202;}
</style>






















<g
   inkscape:groupmode="layer"
   id="layer2"
   inkscape:label="AbnormallyRectangular 1" /><g
   inkscape:groupmode="layer"
   id="layer1"
   inkscape:label="AbnormallyRectangular"
   style="display:inline" /><path
   d="m 388.20629,286.6958 h -68.45291 l 5.16748,-54.54145 H 219.46121 L 164.24834,286.6958 H 96.178928 L 320.16776,62.986437 q 11.57999,-11.444764 27.82169,-18.776565 16.62517,-7.331802 31.19778,-7.331802 13.80563,0 22.61895,6.974153 8.81332,6.974152 7.71466,19.134214 z m -59.08843,-97.28049 6.9124,-73.85449 -73.6396,73.85449 z"
   id="path5461"
   style="font-style:italic;font-weight:bold;font-size:416.299px;line-height:1.25;font-family:'SF Atarian System Extended';-inkscape-font-specification:'SF Atarian System Extended Bold Italic';fill:#000000;stroke-width:9.48083" /><path
   d="m 803.29495,96.068961 q -11.68586,31.294269 -61.58842,56.329689 -19.45475,9.83535 -40.10535,16.98833 -20.58382,6.97414 -42.69629,11.08711 L 709.9366,286.6958 h -81.10775 q -7.37713,-13.94831 -18.0764,-35.04958 -10.43271,-21.28011 -24.45354,-50.07085 -4.64987,-11.08712 -1.84527,-18.59774 7.81284,-20.92246 42.45254,-32.90369 16.11984,-4.64944 31.77333,-9.12005 15.6535,-4.47061 31.70655,-8.94122 34.37204,-10.72947 40.84935,-28.07544 4.27368,-11.444758 -8.83732,-18.597739 -11.04815,-5.722382 -24.83247,-5.722382 H 639.63151 L 521.3511,286.6958 H 453.62812 L 580.04858,64.238208 q 7.53794,-12.696535 26.99047,-20.385985 17.58723,-6.974153 32.96973,-6.974153 h 81.70706 q 34.76047,0 60.71647,13.948305 31.21297,17.524795 20.86264,45.242586 z"
   id="path5463"
   style="font-style:italic;font-weight:bold;font-size:416.299px;line-height:1.25;font-family:'SF Atarian System Extended';-inkscape-font-specification:'SF Atarian System Extended Bold Italic';fill:#000000;stroke-width:9.67726" /><path
   d="m 1152.6514,102.68546 q -0.8066,1.96707 -1.7593,3.75531 -0.7333,1.78824 -1.686,3.57649 h -74.3695 q 5.8664,-14.305955 -5.7509,-22.889525 -10.5216,-7.510626 -28.2913,-7.510626 -17.7697,0 -37.9606,6.974153 -23.99479,8.225925 -31.61377,20.385988 l -69.01026,109.97702 q -1.17206,1.78824 -1.68537,3.04002 -4.69311,11.44476 9.48525,18.59774 12.13246,5.72238 27.26962,5.72238 19.30536,0 39.57074,-8.22592 20.99683,-8.40475 32.85919,-22.35306 h 74.1501 q -22.1951,33.26135 -78.4533,54.36263 -49.30838,18.59774 -94.50048,18.59774 -38.61071,0 -66.60142,-14.6636 -33.03275,-17.88245 -21.22662,-46.67318 1.75992,-4.29178 4.10464,-8.40475 l 69.22963,-109.97702 q 19.56078,-31.651928 77.57341,-52.216737 49.67314,-17.882443 93.32964,-17.882443 40.8044,0 67.1116,16.094199 30.7644,19.134214 18.225,49.713191 z"
   id="path5465"
   style="font-style:italic;font-weight:bold;font-size:416.299px;line-height:1.25;font-family:'SF Atarian System Extended';-inkscape-font-specification:'SF Atarian System Extended Bold Italic';fill:#000000;stroke-width:10.141" /></svg>
